<svg width="30" height="30" viewBox="0 0 30 30" fill="none" xmlns="http://www.w3.org/2000/svg">
<path d="M5.66667 0.333374H1.66667C1.31304 0.333374 0.973905 0.473849 0.723856 0.723897C0.473808 0.973946 0.333333 1.31309 0.333333 1.66671V28.3334C0.333333 28.687 0.473808 29.0261 0.723856 29.2762C0.973905 29.5262 1.31304 29.6667 1.66667 29.6667H5.66667V0.333374Z" fill="#D6B1FF"/>
<path d="M8.33333 29.6667H21.6667V0.333374H8.33333V29.6667ZM15 24.3334C14.6464 24.3334 14.3072 24.1929 14.0572 23.9429C13.8071 23.6928 13.6667 23.3537 13.6667 23C13.6667 22.6464 13.8071 22.3073 14.0572 22.0572C14.3072 21.8072 14.6464 21.6667 15 21.6667C15.3536 21.6667 15.6928 21.8072 15.9428 22.0572C16.1929 22.3073 16.3333 22.6464 16.3333 23C16.3333 23.3537 16.1929 23.6928 15.9428 23.9429C15.6928 24.1929 15.3536 24.3334 15 24.3334ZM15 5.66671C15.3536 5.66671 15.6928 5.80718 15.9428 6.05723C16.1929 6.30728 16.3333 6.64642 16.3333 7.00004C16.3333 7.35366 16.1929 7.6928 15.9428 7.94285C15.6928 8.1929 15.3536 8.33337 15 8.33337C14.6464 8.33337 14.3072 8.1929 14.0572 7.94285C13.8071 7.6928 13.6667 7.35366 13.6667 7.00004C13.6667 6.64642 13.8071 6.30728 14.0572 6.05723C14.3072 5.80718 14.6464 5.66671 15 5.66671ZM15 13.6667C15.3536 13.6667 15.6928 13.8072 15.9428 14.0572C16.1929 14.3073 16.3333 14.6464 16.3333 15C16.3333 15.3537 16.1929 15.6928 15.9428 15.9429C15.6928 16.1929 15.3536 16.3334 15 16.3334C14.6464 16.3334 14.3072 16.1929 14.0572 15.9429C13.8071 15.6928 13.6667 15.3537 13.6667 15C13.6667 14.6464 13.8071 14.3073 14.0572 14.0572C14.3072 13.8072 14.6464 13.6667 15 13.6667Z" fill="#8C30F5"/>
<path d="M28.3333 0.333374H24.3333V29.6667H28.3333C28.687 29.6667 29.0261 29.5262 29.2761 29.2762C29.5262 29.0261 29.6667 28.687 29.6667 28.3334V1.66671C29.6667 1.31309 29.5262 0.973946 29.2761 0.723897C29.0261 0.473849 28.687 0.333374 28.3333 0.333374Z" fill="#2EC5CE"/>
</svg>
